<?xml version="1.0" encoding="utf-8"?>
<!-- Generator: Adobe Illustrator 25.2.1, SVG Export Plug-In . SVG Version: 6.00 Build 0)  -->
<svg version="1.1" id="Capa_1" xmlns="http://www.w3.org/2000/svg" xmlns:xlink="http://www.w3.org/1999/xlink" x="0px" y="0px"
	 viewBox="0 0 2000 2000" style="enable-background:new 0 0 2000 2000;" xml:space="preserve">
<style type="text/css">
	.st0{fill:#1481C4;}
	.st1{fill:#3199F7;}
	.st2{fill:#FFC947;}
	.st3{fill:#20C3C5;}
	.st4{fill:#FFFFFF;}
	.st5{fill:#FF6224;}
	.st6{fill:#383873;}
	.st7{fill:#6B9EE8;}
	.st8{fill:#95BEFF;}
	.st9{fill:#9FCCC9;}
	
		.st10{opacity:0.15;fill:none;stroke:#000000;stroke-width:0.8185;stroke-linecap:round;stroke-miterlimit:10;enable-background:new    ;}
	.st11{fill:#382424;}
	.st12{fill:#FFAD94;}
	.st13{opacity:0.25;enable-background:new    ;}
	.st14{fill:#0C2059;}
	.st15{fill:#2E4780;}
	.st16{opacity:0.15;enable-background:new    ;}
	.st17{fill:#169799;}
	.st18{opacity:0.25;}
	.st19{fill:none;stroke:#000000;stroke-width:0.8185;stroke-linecap:round;stroke-miterlimit:10;}
	.st20{fill:none;stroke:#000000;stroke-width:0.8185;stroke-linecap:round;stroke-miterlimit:10;stroke-dasharray:4.0726,4.0726;}
	.st21{opacity:0.15;fill:#173451;enable-background:new    ;}
	.st22{fill:#75A7EF;}
	.st23{opacity:0.53;}
	.st24{fill:#B2CEF7;}
</style>
<g>
	<g>
		<path class="st0" d="M1273.8,1876.2c-1.8,0-3.6-0.8-4.8-2.3L788.1,1276c-2.1-2.7-1.7-6.6,0.9-8.7c2.7-2.1,6.6-1.7,8.7,0.9
			l480.9,597.9c2.1,2.7,1.7,6.6-0.9,8.7C1276.6,1875.8,1275.2,1876.2,1273.8,1876.2z"/>
	</g>
</g>
<g>
	<g>
		<path class="st1" d="M527.9,1876.2c-1.4,0-2.7-0.4-3.9-1.4c-2.7-2.1-3.1-6-0.9-8.7l480.9-597.9c2.2-2.7,6-3.1,8.7-0.9
			c2.7,2.1,3.1,6,0.9,8.7l-480.9,597.9C531.5,1875.4,529.7,1876.2,527.9,1876.2z"/>
	</g>
</g>
<g>
	<g>
		<path class="st1" d="M1008.8,1876.2c-1.8,0-3.6-0.8-4.8-2.3L523,1276c-2.1-2.7-1.7-6.6,0.9-8.7c2.7-2.1,6.6-1.7,8.7,0.9
			l480.9,597.9c2.1,2.7,1.7,6.6-0.9,8.7C1011.5,1875.8,1010.1,1876.2,1008.8,1876.2z"/>
	</g>
</g>
<path class="st0" d="M613.1,1288H389.6c-8.8,0-15.9-7.1-15.9-15.9l0,0c0-8.8,7.1-15.9,15.9-15.9H613c8.8,0,15.9,7.1,15.9,15.9l0,0
	C628.9,1280.9,621.8,1288,613.1,1288z"/>
<path class="st1" d="M1255.9,1288H617.3c-8.8,0-15.9-7.1-15.9-15.9l0,0c0-8.8,7.1-15.9,15.9-15.9h638.6L1255.9,1288L1255.9,1288z"/>
<g>
	<g>
		<path class="st0" d="M785.6,1571.1c0,9.6-7.8,17.3-17.3,17.3c-9.6,0-17.3-7.8-17.3-17.3c0-9.6,7.8-17.3,17.3-17.3
			C777.9,1553.7,785.6,1561.5,785.6,1571.1z"/>
	</g>
</g>
<path class="st2" d="M1050.7,1571.1c0,9.6-7.8,17.3-17.3,17.3c-9.6,0-17.3-7.8-17.3-17.3c0-9.6,7.8-17.3,17.3-17.3
	C1042.9,1553.7,1050.7,1561.5,1050.7,1571.1z"/>
<g>
	<path class="st3" d="M836.1,782.3H578.8c-2.2,0-4-1.8-4-4V578.7c0-2.2,1.8-4,4-4h257.4c2.2,0,4,1.8,4,4v199.7
		C840.1,780.5,838.3,782.3,836.1,782.3z"/>
	<path class="st4" d="M765,666.4h-8.3c-1.3-4.5-3.2-8.9-5.6-12.8l6.4-6.4c2.5-2.5,2.5-6.4,0-8.9l-9-9c-2.5-2.5-6.4-2.5-8.9,0
		l-6.8,6.8c-3.8-2.1-7.8-3.8-12.1-4.9V621c0-3.5-2.8-6.3-6.3-6.3h-12.8c-3.5,0-6.3,2.8-6.3,6.3v10.4c-4.1,1.1-8.1,2.6-11.7,4.7
		l-7.5-7.5c-2.5-2.5-6.4-2.5-8.9,0l-9,9c-2.4,2.5-2.4,6.4,0,8.9l6.9,6.9c-2.3,3.7-4.1,7.7-5.5,12h-9.8c-3.5,0-6.3,2.8-6.3,6.3v12.8
		c0,3.5,2.8,6.3,6.3,6.3h8.6c1,4.7,2.6,9.2,4.8,13.4l-5.8,5.8c-2.5,2.5-2.5,6.4,0,8.9l9,9c2.5,2.5,6.4,2.5,8.9,0l5.1-5.1
		c4.2,2.8,8.9,4.9,13.8,6.3v7.1c0,3.5,2.8,6.3,6.3,6.3h12.8c3.5,0,6.3-2.8,6.3-6.3v-6.6c5.1-1.2,10-3.2,14.4-5.8l4.9,4.9
		c2.5,2.5,6.4,2.5,8.9,0l9-9c2.5-2.5,2.5-6.4,0-8.9l-5-5c2.5-4.3,4.4-8.9,5.5-13.9h7.8c3.5,0,6.3-2.8,6.3-6.3v-12.8
		C771.3,669.2,768.5,666.4,765,666.4z M714.3,711.9c-22.7,4.3-42.2-15.2-37.9-37.9c2.4-12.7,12.6-22.9,25.3-25.3
		c22.7-4.3,42.2,15.2,37.9,37.9C737.2,699.2,727,709.5,714.3,711.9z"/>
</g>
<g>
	<path class="st5" d="M1175,667.6H917.6c-2.2,0-4-1.8-4-4V463.9c0-2.2,1.8-4,4-4H1175c2.2,0,4,1.8,4,4v199.7
		C1179,665.8,1177.2,667.6,1175,667.6z"/>
	<g>
		<g>
			<g>
				<path class="st4" d="M1001.5,598.7c-1.6,0-3.2-0.6-4.4-1.9l-28-29.9c-2.4-2.6-2.4-6.8,0-9.4l28.4-30.4c2.4-2.6,6.3-2.6,8.8,0
					c2.4,2.6,2.4,6.8,0,9.4l-24.1,25.7l23.6,25.2c2.4,2.6,2.4,6.8,0,9.4C1004.7,598,1003.1,598.7,1001.5,598.7z"/>
			</g>
			<g>
				<path class="st4" d="M1091.1,598.7c-1.6,0-3.2-0.6-4.4-1.9c-2.4-2.6-2.4-6.8,0-9.4l23.6-25.2l-24.1-25.7c-2.4-2.6-2.4-6.8,0-9.4
					c2.4-2.6,6.3-2.6,8.8,0l28.4,30.4c1.2,1.2,1.8,2.9,1.8,4.7s-0.7,3.4-1.8,4.7l-28,29.9C1094.3,598,1092.7,598.7,1091.1,598.7z"/>
			</g>
		</g>
		<g>
			<path class="st4" d="M1032.4,606.9c-0.8,0-1.6-0.2-2.3-0.5c-3.2-1.4-4.7-5.2-3.4-8.6l27.8-73c1.3-3.4,4.9-5,8.1-3.6
				s4.7,5.2,3.4,8.6l-27.8,73C1037.2,605.3,1034.9,606.9,1032.4,606.9z"/>
		</g>
	</g>
</g>
<path class="st4" d="M1362,707.5H803.6v-23.9c0-0.9,0.7-1.7,1.7-1.7h555.2c0.9,0,1.7,0.7,1.7,1.7v23.9H1362z"/>
<path class="st6" d="M1359,1005.2H806.7c-1.7,0-3.1-1.4-3.1-3.1V707.5H1362v294.7C1362,1003.9,1360.7,1005.2,1359,1005.2z"/>
<g>
	<g>
		<path class="st5" d="M1335.2,694.7c0,2.2-1.8,3.9-3.9,3.9c-2.2,0-3.9-1.8-3.9-3.9c0-2.2,1.8-3.9,3.9-3.9
			C1333.5,690.8,1335.2,692.6,1335.2,694.7z"/>
		<path class="st5" d="M1308.3,694.7c0,2.2-1.8,3.9-3.9,3.9c-2.2,0-3.9-1.8-3.9-3.9c0-2.2,1.8-3.9,3.9-3.9
			S1308.3,692.6,1308.3,694.7z"/>
		<path class="st5" d="M1281.3,694.7c0,2.2-1.8,3.9-3.9,3.9c-2.2,0-3.9-1.8-3.9-3.9c0-2.2,1.8-3.9,3.9-3.9
			S1281.3,692.6,1281.3,694.7z"/>
	</g>
</g>
<path class="st1" d="M1142.6,747.7H832.5c-3,0-5.4-2.4-5.4-5.4l0,0c0-3,2.4-5.4,5.4-5.4h310.1c3,0,5.4,2.4,5.4,5.4l0,0
	C1148,745.3,1145.6,747.7,1142.6,747.7z"/>
<path class="st1" d="M1142.6,782.1H832.5c-3,0-5.4-2.4-5.4-5.4l0,0c0-3,2.4-5.4,5.4-5.4h310.1c3,0,5.4,2.4,5.4,5.4l0,0
	C1148,779.7,1145.6,782.1,1142.6,782.1z"/>
<path class="st1" d="M994.7,816.4H832.5c-3,0-5.4-2.4-5.4-5.4l0,0c0-3,2.4-5.4,5.4-5.4h162.2c3,0,5.4,2.4,5.4,5.4l0,0
	C1000.1,814,997.7,816.4,994.7,816.4z"/>
<path class="st3" d="M1142.6,885.1H832.5c-3,0-5.4-2.4-5.4-5.4l0,0c0-3,2.4-5.4,5.4-5.4h310.1c3,0,5.4,2.4,5.4,5.4l0,0
	C1148,882.7,1145.6,885.1,1142.6,885.1z"/>
<path class="st3" d="M994.7,919.5H832.5c-3,0-5.4-2.4-5.4-5.4l0,0c0-3,2.4-5.4,5.4-5.4h162.2c3,0,5.4,2.4,5.4,5.4l0,0
	C1000.1,917.1,997.7,919.5,994.7,919.5z"/>
<path class="st1" d="M994.7,953.8H832.6c-3,0-5.4-2.4-5.4-5.4l0,0c0-3,2.4-5.4,5.4-5.4h162.2c3,0,5.4,2.4,5.4,5.4l0,0
	C1000.1,951.4,997.7,953.8,994.7,953.8z"/>
<path class="st4" d="M1142.6,816.4h-116.5c-3,0-5.4-2.4-5.4-5.4l0,0c0-3,2.4-5.4,5.4-5.4h116.5c3,0,5.4,2.4,5.4,5.4l0,0
	C1148,814,1145.6,816.4,1142.6,816.4z"/>
<path class="st3" d="M1296.6,739.3l-82.4,82.4c-2.1,2.1-5.5,2.1-7.6,0l0,0c-2.1-2.1-2.1-5.5,0-7.6l82.4-82.4c2.1-2.1,5.5-2.1,7.6,0
	l0,0C1298.7,733.8,1298.7,737.2,1296.6,739.3z"/>
<ellipse class="st5" cx="1251.5" cy="895.2" rx="48.6" ry="48.6"/>
<path class="st3" d="M1245.2,929.1c0,15.2-12.3,27.5-27.5,27.5s-27.5-12.3-27.5-27.5s12.3-27.5,27.5-27.5
	C1232.9,901.6,1245.2,913.9,1245.2,929.1z"/>
<polyline class="st6" points="803.6,975.1 803.6,1073.4 893.9,983.1 "/>
<polygon class="st7" points="707.5,1099.9 905.6,1099.9 977.2,1237.8 779.1,1237.8 "/>
<path class="st4" d="M783.1,1227.6l-59.3-114.2c-1.2-2.4,0.5-5.3,3.2-5.3h171.4c1.3,0,2.6,0.7,3.2,1.9l59.3,114.2
	c1.2,2.4-0.5,5.3-3.2,5.3H786.3C785,1229.6,783.7,1228.8,783.1,1227.6z"/>
<rect x="779.1" y="1237.8" class="st8" width="160.5" height="18.4"/>
<path class="st7" d="M1077.4,1237.8H919.1c-5.1,0-9.2,4.1-9.2,9.2l0,0c0,5.1,4.1,9.2,9.2,9.2h158.3c5.1,0,9.2-4.1,9.2-9.2l0,0
	C1086.6,1241.9,1082.5,1237.8,1077.4,1237.8z"/>
<path class="st8" d="M779.1,1237.8l-71.6-137.9l-3.6,2.7c-2.3,1.7-3,4.9-1.7,7.5l76.9,146.1L779.1,1237.8L779.1,1237.8z"/>
<rect x="833.6" y="1246.4" class="st9" width="17.7" height="3.1"/>
<rect x="855.8" y="1246.4" class="st9" width="17.7" height="3.1"/>
<rect x="878" y="1246.4" class="st9" width="17.7" height="3.1"/>
<g>
	<path class="st6" d="M1140.3,1507.7c0,0-164.3,127.9-190.4,160.5c-9.8,12.3-27,33.9-44.7,56c-29.2,36.3-60.1,74.1-63.8,75
		c-5.9,1.5-55.2-36.1-56.7-44.2c-0.9-5,44-82.1,82.8-144.1c23.7-37.7,45.1-69.8,52.6-76.7c19.9-18.4,142.1-83.2,142.1-83.2
		L1140.3,1507.7z"/>
	<path class="st10" d="M826.7,1771.9c0,0,153.5-218.5,230.6-255.3"/>
	<path class="st11" d="M1311.6,946.6c-1.7,4-3.7,8.1-5.9,12.3c-12,23-3.1,46-16.9,51.8c-0.8,0.3-1.7,0.7-2.8,0.9
		c-17.7,3.9-58.4-19.6-60.2-31.4c-1.8-11.8,12.6-31.9,0-34.4c-12.6-2.4-19.3,18.7-19.3,18.7c-10.3,1.1-14-16.2-30.9-16.2
		c-2.4,0-4.7,0.3-7,0.9c-8,2-15,6.9-19.4,10.7c-3.3,2.8-5.2,5-5.2,5s-15.1-9.5-14.4-28.3c1.2-29.8,12.2-51.5,38.7-55.9
		c2.9-33.1,30.2-50.8,66.6-51.9c31.9-1,36.7,27.7,37.5,34.9c-0.3-5.3-1.8-22.8-9.4-34.9c16-0.7,30.1,10.7,26.4,47.9
		c3.7-11.1,16.6-18,26.5-10c-9.2,0-18,15.4-18,15.4s10.8,6.9,18.1,19.7C1322,912.2,1319.7,927.8,1311.6,946.6z"/>
	<path class="st12" d="M1288.8,1010.7l-0.4,5.5l-1.4,19.3c0,0-29.4,25.2-46.1,0c-0.1-0.2-0.2-0.3-0.4-0.5
		c-5.2-7.7-9.8-10.4-14.1-10.9c-9.2-1.1-16.6,7.9-24.3-1.9c-22-27.9-30.7-60.2-33.5-73.1c2.3-0.6,4.6-0.9,7-0.9
		c16.9,0,20.6,17.3,30.9,16.2c0,0,6.8-21.1,19.3-18.7c12.6,2.4-1.8,22.6,0,34.4c0.8,5.2,9.3,12.8,20.2,19.3
		c12.6,7.6,28.3,13.5,38.2,12.4c0.6-0.1,1.2-0.2,1.8-0.3C1287,1011.4,1287.9,1011.1,1288.8,1010.7z"/>
	<path class="st13" d="M1293.4,1046.7c-13.3,9-37.5,10.5-37.5,10.5l-19.9-2.9c0,0-8.3-12.1-4.4-18.8c0.7-1.3,2.6-3.1,5.2-5.3
		c5.3-4.4,13.9-10,22.8-14.6c9.2-4.7,18.6-8.5,25.4-8.9C1301.7,1005.7,1306.6,1037.6,1293.4,1046.7z"/>
	<path class="st3" d="M1289.4,1368.8c-29.6,5.7-92.1-11.7-122.1-25.2c-8.8-4-14.9-7.6-16.3-10.2c-5.7-10.1,0-17.9,14.3-50
		c1.6-3.6,3.3-7.6,5.1-11.8c9.7-22.8,9.7-71.3,9.7-113.1c-0.1-35.8-0.3-66.7,5.4-72.2c12.3-11.9,74-50.8,74-50.8l12.3,63.9
		c0,0,6.9,32.5,14.2,74.8C1299.5,1252.3,1314.3,1364.1,1289.4,1368.8z"/>
	<path class="st6" d="M1310,1397.3c0,2.9-29.4,71.6-54.1,81.4s-173.5-1-173.5-1l-73.6,48.1l15.4,145l10.7,101l0.3,3.3
		c-22.5,14.7-79.2,18.7-85.3,6v-0.1c-5.9-12.8-96.2-284.6-60.8-331.7c35.3-47.1,262-115.8,262-115.8c5.9,3.8,12.8,7.1,20.2,10.2
		c25.2,10.3,57.2,16.8,81.6,20.6c9.4,1.4,17.6,2.5,23.9,3.3c7.9,1,12.7,1.3,12.7,1.3S1310,1394.3,1310,1397.3z"/>
	<path class="st14" d="M1044.6,1869.8H853.2c-1-3.4,0.3-6.8,3.2-10.3c7.8-9.3,27.2-18.7,46-26.8c17.8-7.7,34.9-14.3,40.6-18.8
		c13.5-10.7,7.3-31.5,6.9-32.8c2.1,4.3,9.9,6.6,20.2,7.4c20.3,1.4,50.2-3.6,65.1-13.3l-0.3-3.3c5.7,10.9,8.4,64.8,9.3,87.7
		C1044.4,1865.9,1044.6,1869.8,1044.6,1869.8z"/>
	<path class="st15" d="M970.1,1788.5c-0.6,9.1-1.9,23.9-4.5,27.9c-3.9,5.9-46.1,26.5-52,24.5c-3.8-1.2-8.4-5.4-11.2-8.1
		c17.8-7.7,34.9-14.3,40.6-18.8c13.5-10.7,7.3-31.5,6.9-32.8C952,1785.4,959.8,1787.8,970.1,1788.5z"/>
	<path class="st15" d="M1044.6,1869.8H853.2c-1-3.4,0.3-6.8,3.2-10.3h187.8C1044.4,1865.9,1044.6,1869.8,1044.6,1869.8z"/>
	<path class="st14" d="M841.4,1799.2c0,0-14.5,38.3-27.1,58.6c-5,8.1-9.7,13.3-13.1,12.1c-11.8-4.4-130.1-105-118.7-112.3
		c1.7-1.1,4.3-1.8,7.6-2.2c10.3-1.3,27.3,0.1,43.1,1.7c13.5,1.4,26.1,2.9,32.7,2.9c16.7,0,18.9-4.9,18.9-4.9
		c0.4,1.9,3.5,5.6,8.2,10.1C807.5,1779,836.9,1800.3,841.4,1799.2z"/>
	<path class="st15" d="M792.9,1765.1c-25.1,16.6-51.2,6.6-56.4,2.8c-3.8-2.8-3.8-7.9-3.4-10.9c13.5,1.4,26.1,2.9,32.7,2.9
		c16.7,0,18.9-4.9,18.9-4.9C785.1,1756.9,788.2,1760.6,792.9,1765.1z"/>
	<path class="st15" d="M814.3,1857.8c-5,8.1-9.7,13.3-13.1,12.1c-11.8-4.4-130.1-105-118.7-112.3c1.7-1.1,4.3-1.8,7.6-2.2
		L814.3,1857.8z"/>
	<path class="st12" d="M1167.4,1243.6c-9.3,12.9-25.8,32.5-39.4,30.6c-0.5-0.1-1-0.2-1.7-0.3c-26-4.6-179-43-186.3-44.4
		c-7.4-1.4-58.9-1.9-55.9-7.4c2.9-5.4,32.4-22.6,40.2-22.1c7.8,0.4,38.8,9.4,69.7,8.4c30.9-1,111.9,0,111.9,0l3.9-6.8l5.8-10
		C1114,1221.6,1150.1,1246,1167.4,1243.6z"/>
	<path class="st10" d="M1167.4,1355.3c0,0-7.1,37.5,20.4,50.1"/>
	<path class="st10" d="M1153,1385.5c0,0-181.8,77.5-190.5,101.6c-8.7,24,46.2,284.8,46.2,284.8"/>
	<path class="st16" d="M1310,1397.3c0,2.9-29.4,71.6-54.1,81.4s-173.5-1-173.5-1l-73.6,48.1l15.4,145c0,0-31.1-165.6-31.1-176.4
		c0-9.3,205.6-68.4,259.8-130.2c21.2,3.3,36.6,4.6,36.6,4.6S1310,1394.3,1310,1397.3z"/>
	<path class="st13" d="M1213.1,1221.6c-12.8,18.1-33.3,41.1-47.8,61.9c1.6-3.6,3.3-7.6,5.1-11.8c9.7-22.8,9.7-71.3,9.7-113.1
		l44.1-29.2C1224.2,1129.4,1233.7,1192.4,1213.1,1221.6z"/>
	<path class="st17" d="M1175.5,1238c-1.9,1.7-3.8,3.5-5.8,5.1c-0.7,0.2-1.4,0.4-2.3,0.5c-17.3,2.4-53.4-22-51.8-52
		c0.1-2.2,1.9-6.7,4.8-12.5c14.8-29.8,59.3-96.2,67.4-93.1c0,0,28.6,4.4,36.3,43.4C1231.4,1166,1205.2,1210.5,1175.5,1238z"/>
	<path class="st13" d="M1276.7,1367.5c-6.3-0.7-14.5-1.8-23.9-3.3c-24.4-3.8-56.4-10.3-81.6-20.6c22.2-0.8,69.8-15.4,75.5-124.2
		c2.6,20.4,6.5,41.5,12,63.1C1266.1,1311.2,1273,1341.5,1276.7,1367.5z"/>
	<path class="st13" d="M1265,1008.5c-2.3,2.6-4,5-5.4,7.1c-8.9,4.6-17.5,10.2-22.8,14.6c-3.7-4.1-7.1-5.7-10.4-6.1l19.6-24.7
		C1251.9,1003.1,1258.6,1006.3,1265,1008.5z"/>
	<path class="st13" d="M1167.4,1243.6c-9.3,12.9-25.8,32.5-39.4,30.6c-0.5-0.1-1-0.2-1.7-0.3c-16.9-24.4-17.5-56.3-16.5-72.3l5.8-10
		C1114,1221.6,1150.1,1246,1167.4,1243.6z"/>
	<path class="st13" d="M1311.6,946.6c-1.7,4-3.7,8.1-5.9,12.3c-5.9,11.3-6.7,22.5-7.7,31.8c-2-1.5-4-2.9-6-4.1
		c-12.8,7.6-21.4,15.5-26.9,22l0,0c-18-6.4-37.9-20.2-39.1-28.4c-1.8-11.8,12.6-31.9,0-34.4c-12.6-2.4-19.3,18.7-19.3,18.7
		c-10.3,1.1-14-16.2-30.9-16.2c-2.4,0-4.7,0.3-7,0.9c-8,2-15,6.9-19.4,10.7c0,0,19.1-26.8,49-21.4c0,0-4.4-8.3-24.5-7.4
		c42.2-13.8,69.2-8.3,82.2,6.9C1266.4,950.4,1291.3,965.8,1311.6,946.6z"/>
</g>
<path class="st8" d="M1397.4,1525.9h-147.2c0,0,116.8-34.4,116.8-266c0-3,0-5.9,0-8.8c-1.2-154.8-34.3-240.2-75-264.5
	c12.8-7.6,29.7-14.8,52.2-19.8c9.8-2.2,20.6-4,32.5-5.2c100.8-10.3,181.4,29.2,190.9,74C1577,1080.2,1518.1,1525.9,1397.4,1525.9z"
	/>
<path class="st7" d="M1367,1259.9c0,231.6-116.8,266-116.8,266h-241.4l10-7.1l63.6-41l127.6-8.8c6.9-28.5,25.5-29.4,54-32.4
	c16.6-1.7,18.2-29.7,13.1-66.6c-3.7-26.6-10.8-57.9-18.3-87.4c-5.5-21.6-9.4-42.7-12-63.1c-3.1-23.8-4.5-46.6-4.6-68
	c-0.4-48.8,5.6-90.5,11.9-120.7c0.6-2.9,1.2-5.7,1.8-8.4c0-0.1,0-0.2,0-0.3c0.6-1.3,3.1-6.5,9-13.4l0,0c5.5-6.5,14.1-14.4,26.9-22
	c2,1.2,4,2.6,6,4.1c38,28.9,67.9,113.3,69,260.4C1367,1254,1367,1256.9,1367,1259.9z"/>
<path class="st8" d="M1320.4,1869.8h-173.8c-5.9,0-8.5-7.5-3.8-11.2l43.5-34c19.3-15.1,30.6-38.3,30.6-62.8v-235.9h33.4v235.9
	c0,24.5,11.3,47.7,30.6,62.8l43.4,34C1328.9,1862.3,1326.3,1869.8,1320.4,1869.8z"/>
<g class="st18">
	<g>
		<path class="st19" d="M1452.9,970.4c0,0,0.2,0.6,0.7,1.9"/>
		<path class="st20" d="M1455,976.2c4.9,14.6,17.7,57.1,26.8,127.7c16.4,126.4-1.5,305.6-118.3,413"/>
		<path class="st19" d="M1362,1518.2c-0.5,0.5-1,0.9-1.5,1.4"/>
	</g>
</g>
<path class="st16" d="M1250.2,1525.9v64.4c-11.6,6-23.3,10.7-33.4,14v-78.5L1250.2,1525.9L1250.2,1525.9z"/>
<path class="st16" d="M1296.3,1425.8c-7.8,24.5-56.9,20.1-62.8,38.3c-12.6,38.5-19.6,21.6-68.1,26.5c-27.8,2.8-47.9,20.6-60.1,35.4
	h-96.5l10-7.1l63.6-41l127.6-8.8c6.9-28.5,25.5-29.4,54-32.4c16.6-1.7,18.2-29.7,13.1-66.6c-3.7-26.6-10.8-57.9-18.3-87.4
	c-5.5-21.6-9.4-42.7-12-63.1c-3.1-23.8-4.5-46.6-4.6-68C1261.1,1249.8,1302.1,1407.6,1296.3,1425.8z"/>
<path class="st21" d="M1367,1259.9c0-3,0-5.9,0-8.8c-1.2-154.8-34.3-240.2-75-264.5c12.8-7.6,29.7-14.8,52.2-19.8
	c-6.7,9.7-13.8,24.3-10.4,39.9c5.9,27.5,72.6,133.5,47.1,303.3c-18.4,122.5-12.3,186.2,6.9,215.9h-137.5
	C1250.2,1525.9,1367,1491.5,1367,1259.9z"/>
<path class="st13" d="M524.5,1133.7c-0.1,5.4-0.6,10.4-1.6,15h-47.4c-13.9-9.3-36.6-27.5-50.3-55c12.7,13.8,34.3,30.6,56.4,35.7
	C501,1133.8,515.3,1131.9,524.5,1133.7z"/>
<path class="st22" d="M634.6,945.6c-5.3,19.2-29.5,56.5-51.7,96.4c-24.2,43.5-45.8,90.2-37.4,119.8c2.1,7.4,3.1,12.9,3.1,16.8
	c0.1,12.9-9.7,8.9-19.6,1.6c-10.1-7.5-20.3-18.4-20.3-18.4l0.7-57.4c0,0-32.5-29.9-5.8-95.3c1.7-4.1,3.6-8.4,5.8-12.9
	c36.8-74.3,92-152.4,39.7-174.5C621.4,817.3,645.6,905.5,634.6,945.6z"/>
<g class="st23">
	<path d="M549.2,821.7c3.4,0.7,6.6,1.9,9.8,3.3c3.1,1.5,6.1,3.3,8.9,5.3c5.6,4.1,10.3,9.2,14,15c1.9,2.9,3.5,5.9,4.9,9.1
		c1.4,3.2,2.6,6.4,3.5,9.7c1,3.3,1.7,6.7,2.4,10.1c0.3,1.7,0.5,3.4,0.8,5.1c0.1,0.9,0.2,1.7,0.2,2.6c0,0.9,0.1,1.7,0.1,2.6
		c0,3.5-0.4,6.9-0.9,10.3c-0.6,3.4-1.3,6.8-2.2,10.1c-1.8,6.7-4,13.2-6.4,19.7c-4.8,12.9-10.5,25.5-16.3,38
		c-11.6,25-24.1,49.5-35.2,74.7c-5.5,12.6-10.7,25.4-14.7,38.5c-2,6.6-3.6,13.3-4.5,20.1c-0.4,3.4-0.6,6.8-0.5,10.2
		c0.2,3.4,0.7,6.8,1.8,10c0.1,0.2,0,0.4-0.2,0.5s-0.4,0-0.5-0.2l0,0c-1.2-3.3-1.7-6.8-1.8-10.2c-0.2-3.5,0.1-6.9,0.5-10.4
		c0.9-6.9,2.5-13.6,4.5-20.2c4-13.2,9.3-26,14.8-38.6c11.2-25.2,23.7-49.7,35.4-74.6c5.8-12.5,11.5-25,16.4-37.9
		c2.4-6.4,4.6-13,6.4-19.6c0.9-3.3,1.6-6.7,2.2-10.1c0.6-3.4,1-6.8,1-10.3c0-0.9,0-1.7-0.1-2.6c0-0.9-0.1-1.7-0.2-2.6
		c-0.2-1.7-0.5-3.4-0.8-5.1c-0.6-3.4-1.3-6.7-2.3-10c-0.9-3.3-2.2-6.5-3.5-9.7c-1.4-3.1-3-6.2-4.9-9.1c-3.7-5.8-8.5-10.9-14-15
		c-2.8-2-5.7-3.8-8.8-5.3C555.8,823.6,552.6,822.4,549.2,821.7z"/>
</g>
<path class="st7" d="M601.4,1061.7c-22.1,58.2,0,102.3-33.1,108.5c-15.2,2.9-21.8-8.3-24.6-21.4c-3.3-15.4-1.1-33.4-1.1-33.4
	s5.6-14.4,17.4-28.3C569.6,1075.7,583.3,1064.6,601.4,1061.7z"/>
<path class="st8" d="M524.5,1133.7c-0.1,13.5-3.2,25-9.5,31.1c-0.6,0.6-1.2,1.2-1.8,1.6c-15.7,12.7-25.6-10.5-25.6-10.5
	s-41.6-20.5-62.3-62.2c-15.8-32-19.3-76.5,17.9-133.8c5.5,40.8,27.8,68.5,49.9,94.9l0,0c2.8,3.3,5.5,6.5,8.2,9.8
	C516.7,1083,524.8,1111.2,524.5,1133.7z"/>
<g class="st23">
	<path d="M443.2,959.9c-1.9,8.7-3,17.7-3.6,26.6c-0.5,8.9-0.5,17.9,0.4,26.8c0.4,4.5,1,8.9,1.9,13.3c0.8,4.4,1.9,8.8,3.2,13
		c1.3,4.3,2.8,8.5,4.7,12.5c1.9,4.1,3.9,8,6.3,11.8c4.7,7.6,10.1,14.7,15.9,21.5s11.9,13.4,17.6,20.3s11.2,14.1,14.9,22.3
		c1.9,4.1,3.3,8.4,4.1,12.9c0.8,4.4,1,9,0.6,13.5c0,0.2-0.2,0.4-0.4,0.4c-0.2,0-0.4-0.2-0.4-0.4l0,0c0.4-4.4,0.2-8.9-0.5-13.3
		c-0.8-4.4-2.1-8.6-4-12.7c-3.7-8.1-9.1-15.4-14.7-22.2c-5.7-6.9-11.8-13.5-17.5-20.3c-5.8-6.8-11.2-14-15.9-21.6
		c-2.3-3.8-4.4-7.8-6.2-11.9c-1.8-4.1-3.3-8.3-4.7-12.6c-1.3-4.3-2.3-8.7-3.1-13.1c-0.8-4.4-1.4-8.8-1.8-13.3
		c-0.8-8.9-0.8-17.9-0.3-26.8C440.1,977.5,441.2,968.6,443.2,959.9z"/>
</g>
<g class="st18">
	<path d="M601.5,1061.7c-6.4,7.2-12.4,14.8-18.2,22.6c-5.7,7.8-11.1,15.8-16.1,24.1c-5,8.3-9.5,16.9-13.2,25.8s-6.7,18.2-8.1,27.7
		l0,0c0,0.2-0.2,0.4-0.5,0.3s-0.4-0.2-0.3-0.5l0,0c1.5-9.6,4.5-18.9,8.3-27.8s8.4-17.5,13.4-25.7c5-8.3,10.5-16.3,16.3-24
		C588.9,1076.4,595,1068.8,601.5,1061.7z"/>
</g>
<path class="st24" d="M588.1,1163.2l-14.1,86.7c-0.7,3.6-3.9,6.3-7.6,6.3h-88c-3.7,0-6.9-2.6-7.6-6.3l-11.5-70.4l-2.6-16.3
	c-0.9-4.7,2.8-9.1,7.6-9.1h116.3C585.3,1154.1,588.9,1158.5,588.1,1163.2z"/>
<path class="st8" d="M601.4,1180.9H443.2l4.2-23.6c0.9-5,5.2-8.6,10.2-8.6H587c5,0,9.3,3.6,10.2,8.6L601.4,1180.9z"/>
<path class="st13" d="M542.6,1115.4c0,0-2.2,17.9,1.1,33.3H523c1-4.5,1.5-9.6,1.6-15c0.2-22.5-7.8-50.8-23.2-69.1
	c-2.7-3.3-5.5-6.5-8.2-9.8l0,0c0.3-12.7,3.2-27.9,10.5-45.7c1.2,20.9,6.3,57.1,27.1,61c15.8,2.9,36.4-12.8,52.1-28
	c-8.3,14.9-16.3,30.2-22.9,45.1C548.2,1101,542.6,1115.4,542.6,1115.4z"/>
<path class="st13" d="M530.9,1256.2h-52.5c-3.7,0-6.9-2.6-7.6-6.3l-11.3-69.1h45.4c-1.1,9.7-2.5,27.7,0.9,41.7
	C508.5,1233.7,518.2,1248,530.9,1256.2z"/>
<g>
	<path class="st6" d="M945,541.8H687.6c-2.2,0-4-1.8-4-4V338.2c0-2.2,1.8-4,4-4H945c2.2,0,4,1.8,4,4v199.7
		C949,540,947.2,541.8,945,541.8z"/>
	<g>
		<path class="st4" d="M745.4,407.6V430c0,1.8,1.5,3.2,3.2,3.2H761c1.8,0,3.2-1.5,3.2-3.2v-22.3c0-1.8,1.5-3.2,3.2-3.2h1.2
			c1.8,0,3.2,1.5,3.2,3.2v60.8c0,1.8-1.5,3.2-3.2,3.2h-1.2c-1.8,0-3.2-1.5-3.2-3.2v-24.9c0-1.8-1.5-3.2-3.2-3.2h-12.4
			c-1.8,0-3.2,1.5-3.2,3.2v24.9c0,1.8-1.5,3.2-3.2,3.2H741c-1.8,0-3.2-1.5-3.2-3.2v-60.8c0-1.8,1.5-3.2,3.2-3.2h1.2
			C744,404.4,745.4,405.8,745.4,407.6z"/>
		<path class="st4" d="M788.6,411.3h-5.8c-1.8,0-3.2-1.5-3.2-3.2v-0.4c0-1.8,1.5-3.2,3.2-3.2h25.7c1.8,0,3.2,1.5,3.2,3.2v0.4
			c0,1.8-1.5,3.2-3.2,3.2h-5.8c-1.8,0-3.2,1.5-3.2,3.2v53.9c0,1.8-1.5,3.2-3.2,3.2H795c-1.8,0-3.2-1.5-3.2-3.2v-53.9
			C791.8,412.7,790.3,411.3,788.6,411.3z"/>
		<path class="st4" d="M859.5,442.7c-0.5-8.9-1-18.8-0.7-26.3h-0.4c-1.5,7.5-3.3,15.5-5.4,23.3l-8.3,31.5h-4.9L832,441
			c-2.2-8.6-4.2-16.9-5.5-24.6h-0.3c0,7.9-0.4,17.3-0.8,26.8l-1.2,25.3c-0.1,1.7-1.5,3.1-3.2,3.1h-0.3c-1.9,0-3.3-1.6-3.2-3.4
			l3.6-60.8c0.1-1.7,1.5-3,3.2-3h2.7c1.5,0,2.8,1,3.1,2.4l7.3,28.3c2.3,8.9,4,15.5,5.4,23.1h0.3c1.3-7.7,2.8-14.1,5-23.1l7-28.3
			c0.4-1.4,1.7-2.5,3.1-2.5h3c1.7,0,3.1,1.3,3.2,3.1l3.5,60.8c0.1,1.9-1.4,3.4-3.2,3.4H864c-1.7,0-3.2-1.4-3.2-3.1L859.5,442.7z"/>
		<path class="st4" d="M881.8,404.4h1.2c1.8,0,3.2,1.5,3.2,3.2v54.3c0,1.8,1.5,3.2,3.2,3.2h12.5c1.8,0,3.2,1.5,3.2,3.2l0,0
			c0,1.8-1.5,3.2-3.2,3.2h-20.2c-1.8,0-3.2-1.5-3.2-3.2v-60.8C878.5,405.8,880,404.4,881.8,404.4z"/>
	</g>
</g>
<g>
	<g>
		<g>
			<path class="st6" d="M1031.5,352c8.4,0,10.4-5.7,10.4-10.7c0-4.4-0.5-8.7-0.9-13c-0.5-4.6-0.9-8.7-0.9-13.5
				c0-13.8,8.4-19.6,19.3-19.6h1.8v8h-2.3c-6.4,0-9,4.6-9,11.5c0,4.1,0.5,8,0.9,11.6c0.3,4,0.8,7.7,0.8,11.3
				c0.2,11.9-4,16.1-10.6,17.9v0.3c6.6,2,10.7,6.1,10.6,18.2c0,3.8-0.5,7.7-0.8,11.5c-0.5,3.8-0.9,7.7-0.9,11.8
				c0,6.9,2.3,11.6,9.2,11.6h2.1v8h-2c-10.1,0-19.1-5.1-19.1-19.6c0-4.6,0.5-9.2,0.9-13.6c0.5-4.4,0.9-8.9,0.9-13.2
				c0-4.9-2-10.9-10.4-10.9V352z"/>
			<path class="st6" d="M1187.6,359.6c-8.4,0-10.4,6-10.4,10.9c0,4.3,0.5,8.7,0.9,13.2c0.5,4.4,0.9,9,0.9,13.6
				c0,14.5-9,19.6-19.1,19.6h-2v-8h2.1c6.9-0.8,9.2-4.7,9.2-11.6c0-4.1-0.5-8-0.8-11.8c-0.5-3.8-0.9-7.7-0.9-11.5
				c-0.2-12.1,4-16.2,10.6-18.2v-0.3c-6.6-1.8-10.7-6-10.6-17.9c0-3.7,0.5-7.4,0.9-11.3c0.3-3.7,0.8-7.5,0.8-11.6
				c0-6.9-2.6-10.7-9-11.5h-2.3v-8h1.8c10.9,0,19.3,5.8,19.3,19.6c0,4.7-0.5,8.9-0.9,13.5c-0.5,4.3-0.9,8.6-0.9,13
				c0,5.1,2,10.7,10.4,10.7V359.6z"/>
		</g>
	</g>
	<polygon class="st5" points="1135,370.8 1135,341.3 1109.5,326.6 1084,341.3 1084,370.8 1109.5,385.5 	"/>
</g>
<g>
	<path class="st3" d="M1327,517.5c-24-11.9-52.8-7.2-71.8,11.7c-23.4,23.4-24.2,60.9-2.5,85.3l-9.3-1.1c-1.1-0.1-2.2,0.7-2.3,1.8
		c-0.1,1.1,0.7,2.2,1.8,2.3l14.2,1.7c0.6,0.1,1.1-0.1,1.5-0.4c0.4-0.3,0.7-0.8,0.8-1.4l1.6-13.8c0.1-1.1-0.7-2.2-1.8-2.3
		c-1.1-0.1-2.2,0.7-2.3,1.8l-1,8.8c-20.4-22.8-19.7-57.9,2.2-79.8c17.7-17.7,44.6-22.1,67-11c1,0.5,2.3,0.1,2.8-0.9
		C1328.4,519.3,1328,518,1327,517.5z"/>
	<path class="st3" d="M1273.3,631.8c24,11.9,52.8,7.2,71.8-11.7c23.4-23.4,24.2-60.9,2.5-85.3l9.3,1.1c1.1,0.1,2.2-0.7,2.3-1.8
		c0.1-1.1-0.7-2.2-1.8-2.3l-14.2-1.7c-0.6-0.1-1.1,0.1-1.5,0.4c-0.4,0.3-0.7,0.8-0.8,1.4l-1.6,13.8c-0.1,1.1,0.7,2.2,1.8,2.3
		c1.1,0.1,2.2-0.7,2.3-1.8l1-8.8c20.4,22.8,19.7,57.9-2.2,79.8c-17.7,17.7-44.6,22.1-67,11c-1-0.5-2.3-0.1-2.8,0.9
		C1271.9,630.1,1272.3,631.3,1273.3,631.8z"/>
</g>
<path class="st8" d="M1825.7,747.7h-373.8c-6.8,0-12.3-5.5-12.3-12.3l0,0c0-6.8,5.5-12.3,12.3-12.3h373.8c6.8,0,12.3,5.5,12.3,12.3
	l0,0C1838,742.2,1832.5,747.7,1825.7,747.7z"/>
<path class="st8" d="M1692.2,801.4h-240.3c-6.8,0-12.3-5.5-12.3-12.3l0,0c0-6.8,5.5-12.3,12.3-12.3h240.3c6.8,0,12.3,5.5,12.3,12.3
	l0,0C1704.6,795.8,1699,801.4,1692.2,801.4z"/>
<path class="st8" d="M1692.2,858.9h-240.3c-6.8,0-12.3-5.5-12.3-12.3l0,0c0-6.8,5.5-12.3,12.3-12.3h240.3c6.8,0,12.3,5.5,12.3,12.3
	l0,0C1704.6,853.4,1699,858.9,1692.2,858.9z"/>
<path class="st8" d="M500.4,542.8H306.2c-6.8,0-12.3-5.5-12.3-12.3l0,0c0-6.8,5.5-12.3,12.3-12.3h194.2c6.8,0,12.3,5.5,12.3,12.3
	l0,0C512.7,537.2,507.2,542.8,500.4,542.8z"/>
<path class="st8" d="M427.1,596.4H306.2c-6.8,0-12.3-5.5-12.3-12.3l0,0c0-6.8,5.5-12.3,12.3-12.3h120.9c6.8,0,12.3,5.5,12.3,12.3
	l0,0C439.4,590.9,433.9,596.4,427.1,596.4z"/>
<path class="st8" d="M427.1,654H306.2c-6.8,0-12.3-5.5-12.3-12.3l0,0c0-6.8,5.5-12.3,12.3-12.3h120.9c6.8,0,12.3,5.5,12.3,12.3l0,0
	C439.4,648.4,433.9,654,427.1,654z"/>
</svg>
